<svg xmlns="http://www.w3.org/2000/svg" width="900" height="920" viewBox="0 0 900 920">
  <style>.b{fill:#f9fbfc;stroke:#1f3a4d;stroke-width:2}.t{font:700 26px Arial}.s{font:16px Arial}.a{stroke:#1f3a4d;stroke-width:2}</style>
  <rect class="b" x="180" y="20" width="540" height="85" rx="12"/><text class="t" x="450" y="70" text-anchor="middle">8. Experience</text>
  <rect class="b" x="180" y="130" width="540" height="85" rx="12"/><text class="t" x="450" y="180" text-anchor="middle">7. Governance</text>
  <rect class="b" x="180" y="240" width="540" height="85" rx="12"/><text class="t" x="450" y="290" text-anchor="middle">6. Learning</text>
  <rect class="b" x="180" y="350" width="540" height="85" rx="12"/><text class="t" x="450" y="400" text-anchor="middle">5. Intervention</text>
  <rect class="b" x="180" y="460" width="540" height="85" rx="12"/><text class="t" x="450" y="510" text-anchor="middle">4. Prediction</text>
  <rect class="b" x="180" y="570" width="540" height="85" rx="12"/><text class="t" x="450" y="620" text-anchor="middle">3. Detection</text>
  <rect class="b" x="180" y="680" width="540" height="85" rx="12"/><text class="t" x="450" y="730" text-anchor="middle">2. Clinical Knowledge</text>
  <rect class="b" x="180" y="790" width="540" height="85" rx="12"/><text class="t" x="450" y="840" text-anchor="middle">1. Data Fabric</text>
  <line class="a" x1="450" y1="105" x2="450" y2="130"/><line class="a" x1="450" y1="215" x2="450" y2="240"/><line class="a" x1="450" y1="325" x2="450" y2="350"/><line class="a" x1="450" y1="435" x2="450" y2="460"/><line class="a" x1="450" y1="545" x2="450" y2="570"/><line class="a" x1="450" y1="655" x2="450" y2="680"/><line class="a" x1="450" y1="765" x2="450" y2="790"/>
  <text class="s" x="450" y="900" text-anchor="middle">SentinelCare architecture links data, knowledge, detection, workflow, learning, governance, and user experience.</text>
</svg>
